<svg width="800" height="200" viewBox="0 0 800 200" xmlns="http://www.w3.org/2000/svg">
  <defs>
    <!-- Gradient for pomegranate -->
    <radialGradient id="pomegranateGradient" cx="0.3" cy="0.3" r="0.8">
      <stop offset="0%" style="stop-color:#ff6b6b;stop-opacity:1" />
      <stop offset="50%" style="stop-color:#e74c3c;stop-opacity:1" />
      <stop offset="100%" style="stop-color:#c0392b;stop-opacity:1" />
    </radialGradient>

    <!-- Gradient for crown -->
    <linearGradient id="crownGradient" x1="0%" y1="0%" x2="0%" y2="100%">
      <stop offset="0%" style="stop-color:#f39c12;stop-opacity:1" />
      <stop offset="100%" style="stop-color:#d68910;stop-opacity:1" />
    </linearGradient>



    <!-- Text gradient -->
    <linearGradient id="textGradient" x1="0%" y1="0%" x2="100%" y2="0%">
      <stop offset="0%" style="stop-color:#2c3e50;stop-opacity:1" />
      <stop offset="50%" style="stop-color:#34495e;stop-opacity:1" />
      <stop offset="100%" style="stop-color:#2c3e50;stop-opacity:1" />
    </linearGradient>

    <!-- Shadow filter -->
    <filter id="dropshadow" x="-50%" y="-50%" width="200%" height="200%">
      <feDropShadow dx="2" dy="2" stdDeviation="3" flood-color="#000000" flood-opacity="0.3"/>
    </filter>
  </defs>

  <!-- Background -->
  <rect width="800" height="200" fill="#f8f9fa"/>

  <!-- Pomegranate body -->
  <circle cx="120" cy="100" r="45" fill="url(#pomegranateGradient)" filter="url(#dropshadow)"/>

  <!-- Pomegranate texture lines -->
  <path d="M 90 85 Q 120 70 150 85" stroke="#c0392b" stroke-width="1" fill="none" opacity="0.6"/>
  <path d="M 85 100 Q 120 85 155 100" stroke="#c0392b" stroke-width="1" fill="none" opacity="0.6"/>
  <path d="M 90 115 Q 120 130 150 115" stroke="#c0392b" stroke-width="1" fill="none" opacity="0.6"/>

  <!-- Pomegranate seeds -->
  <circle cx="110" cy="90" r="3" fill="#fff" opacity="0.8"/>
  <circle cx="125" cy="95" r="2.5" fill="#fff" opacity="0.8"/>
  <circle cx="115" cy="105" r="2" fill="#fff" opacity="0.8"/>
  <circle cx="130" cy="110" r="3" fill="#fff" opacity="0.8"/>
  <circle cx="108" cy="115" r="2" fill="#fff" opacity="0.8"/>

  <!-- Crown/leaves at top -->
  <path d="M 110 55 L 115 45 L 120 55 L 125 45 L 130 55 L 120 60 Z" fill="url(#crownGradient)" filter="url(#dropshadow)"/>

  <!-- Play button overlay on pomegranate -->
  <circle cx="120" cy="100" r="200" fill="url(#playGradient)" opacity="0.2" filter="url(#dropshadow)"/>
  <polygon points="110,90 110,110 135,100" fill="#fff0" stroke="#fffa" stroke-width="13" stroke-linejoin="round" stroke-linecap="round"/>

  <!-- Streaming waves -->
  <g opacity="0.6">
    <path d="M 180 80 Q 200 85 220 80" stroke="#3498db" stroke-width="2" fill="none">
      <animate attributeName="d" values="M 180 80 Q 200 85 220 80;M 180 80 Q 200 75 220 80;M 180 80 Q 200 85 220 80" dur="2s" repeatCount="indefinite"/>
    </path>
    <path d="M 180 100 Q 200 105 220 100" stroke="#3498db" stroke-width="2" fill="none">
      <animate attributeName="d" values="M 180 100 Q 200 105 220 100;M 180 100 Q 200 95 220 100;M 180 100 Q 200 105 220 100" dur="2s" repeatCount="indefinite" begin="0.5s"/>
    </path>
    <path d="M 180 120 Q 200 125 220 120" stroke="#3498db" stroke-width="2" fill="none">
      <animate attributeName="d" values="M 180 120 Q 200 125 220 120;M 180 120 Q 200 115 220 120;M 180 120 Q 200 125 220 120" dur="2s" repeatCount="indefinite" begin="1s"/>
    </path>
  </g>

  <!-- Main title -->
  <text x="260" y="80" font-family="Arial, sans-serif" font-size="32" font-weight="bold" fill="url(#textGradient)" filter="url(#dropshadow)">
    POMEGRANATE
  </text>

  <!-- Subtitle -->
  <text x="260" y="110" font-family="Arial, sans-serif" font-size="18" font-weight="normal" fill="#7f8c8d">
    Video Streaming Platform
  </text>

  <!-- Tech stack badges -->
  <g transform="translate(260, 130)">
    <!-- Django badge -->
    <rect x="0" y="0" width="70" height="20" rx="10" fill="#092e20"/>
    <text x="35" y="14" font-family="Arial, sans-serif" font-size="11" font-weight="bold" fill="#fff" text-anchor="middle">Django</text>

    <!-- HLS badge -->
    <rect x="80" y="0" width="45" height="20" rx="10" fill="#ff6b6b"/>
    <text x="102.5" y="14" font-family="Arial, sans-serif" font-size="11" font-weight="bold" fill="#fff" text-anchor="middle">HLS</text>

    <!-- Video.js badge -->
    <rect x="135" y="0" width="65" height="20" rx="10" fill="#3498db"/>
    <text x="167.5" y="14" font-family="Arial, sans-serif" font-size="11" font-weight="bold" fill="#fff" text-anchor="middle">Video.js</text>
  </g>

  <!-- Decorative elements -->
  <circle cx="700" cy="50" r="3" fill="#e74c3c" opacity="0.6">
    <animate attributeName="opacity" values="0.6;1;0.6" dur="3s" repeatCount="indefinite"/>
  </circle>
  <circle cx="720" cy="70" r="2" fill="#3498db" opacity="0.6">
    <animate attributeName="opacity" values="0.6;1;0.6" dur="3s" repeatCount="indefinite" begin="1s"/>
  </circle>
  <circle cx="710" cy="90" r="2.5" fill="#f39c12" opacity="0.6">
    <animate attributeName="opacity" values="0.6;1;0.6" dur="3s" repeatCount="indefinite" begin="2s"/>
  </circle>

  <!-- Bottom line -->
  <line x1="50" y1="170" x2="750" y2="170" stroke="#ecf0f1" stroke-width="2"/>
</svg>
